<svg style="display: none;" aria-hidden="true" xmlns="http://www.w3.org/2000/svg" xmlns:xlink="http://www.w3.org/1999/xlink"><symbol viewBox="0 0 32 34" fill="none" id="svg-cart"><path fill-rule="evenodd" clip-rule="evenodd" d="M4.65214 2.24957H0V.749573H4.65214C6.00406.749573 7.15546 1.73221 7.36796 3.06732L7.99688 7.01882H29.7121C30.8545 7.01882 31.6906 8.09558 31.4076 9.20234L29.5067 16.6364C29.0823 18.2963 27.5869 19.4574 25.8736 19.4574H9.9766L10.3874 22.0383C10.484 22.6452 11.0073 23.0918 11.6218 23.0918H28.203V24.5918H11.6218C10.2699 24.5918 9.11852 23.6092 8.90602 22.2741L5.8866 3.3031C5.79002 2.69623 5.26665 2.24957 4.65214 2.24957zM9.73786 17.9574H25.8736C26.9016 17.9574 27.7988 17.2607 28.0535 16.2648L29.9543 8.83075C29.9948 8.67264 29.8753 8.51882 29.7121 8.51882H8.23562L9.73786 17.9574zM13.5695 31.8258C14.3183 31.8258 15.0189 31.1799 15.0189 30.2656 15.0189 29.3513 14.3183 28.7054 13.5695 28.7054 12.8207 28.7054 12.1201 29.3513 12.1201 30.2656 12.1201 31.1799 12.8207 31.8258 13.5695 31.8258zM13.5695 33.3258C15.1984 33.3258 16.5189 31.9557 16.5189 30.2656 16.5189 28.5755 15.1984 27.2054 13.5695 27.2054 11.9406 27.2054 10.6201 28.5755 10.6201 30.2656 10.6201 31.9557 11.9406 33.3258 13.5695 33.3258zM26.5466 31.8258C27.2954 31.8258 27.996 31.1799 27.996 30.2656 27.996 29.3513 27.2954 28.7054 26.5466 28.7054 25.7977 28.7054 25.0972 29.3513 25.0972 30.2656 25.0972 31.1799 25.7977 31.8258 26.5466 31.8258zM26.5466 33.3258C28.1755 33.3258 29.496 31.9557 29.496 30.2656 29.496 28.5755 28.1755 27.2054 26.5466 27.2054 24.9177 27.2054 23.5972 28.5755 23.5972 30.2656 23.5972 31.9557 24.9177 33.3258 26.5466 33.3258z" fill="#000"/></symbol><symbol viewBox="0 0 13 12" fill="none" id="svg-search"><path fill-rule="evenodd" clip-rule="evenodd" d="M4.5 8C6.433 8 8 6.433 8 4.5C8 2.567 6.433 1 4.5 1C2.567 1 1 2.567 1 4.5C1 6.433 2.567 8 4.5 8ZM4.5 9C6.98528 9 9 6.98528 9 4.5C9 2.01472 6.98528 0 4.5 0C2.01472 0 0 2.01472 0 4.5C0 6.98528 2.01472 9 4.5 9Z" fill="#000" fill-opacity=".5"/><path fill-rule="evenodd" clip-rule="evenodd" d="M11.6546 11.6178L7.00006 6.99999L7.70996 6.29568L12.3645 10.9135L11.6546 11.6178Z" fill="#000" fill-opacity=".5"/></symbol><symbol viewBox="0 0 22 29" fill="none" id="svg-user"><path d="M10.5941 15.3117C10.6201 15.3117 10.6461 15.3117 10.6773 15.3117C10.6877 15.3117 10.6981 15.3117 10.7085 15.3117C10.7242 15.3117 10.745 15.3117 10.7606 15.3117C12.2849 15.2831 13.5179 14.6931 14.4283 13.5646C16.4313 11.0784 16.0983 6.81654 16.0619 6.40983C15.9319 3.35661 14.6208 1.89587 13.5387 1.21419C12.7323 0.704369 11.7907 0.429408 10.7398 0.406494H10.7033C10.6981 0.406494 10.6877 0.406494 10.6825 0.406494H10.6513C10.0738 0.406494 8.9397 0.509605 7.85237 1.19128C6.75985 1.87296 5.42801 3.33369 5.29795 6.40983C5.26153 6.81654 4.92857 11.0784 6.93153 13.5646C7.83677 14.6931 9.06976 15.2831 10.5941 15.3117ZM6.68701 6.55304C6.68701 6.53585 6.69222 6.51867 6.69222 6.50721C6.8639 2.39997 9.51197 1.95888 10.6461 1.95888H10.6669C10.6773 1.95888 10.6929 1.95888 10.7085 1.95888C12.1132 1.99325 14.5012 2.62337 14.6624 6.50721C14.6624 6.52439 14.6624 6.54158 14.6676 6.55304C14.6728 6.59313 15.037 10.4884 13.3826 12.5392C12.7271 13.3526 11.8531 13.7536 10.7033 13.7651C10.6929 13.7651 10.6877 13.7651 10.6773 13.7651C10.6669 13.7651 10.6617 13.7651 10.6513 13.7651C9.50677 13.7536 8.62755 13.3526 7.97723 12.5392C6.32804 10.4999 6.68181 6.58741 6.68701 6.55304Z" fill="#fff"/><path d="M21.3682 22.3805C21.3682 22.3748 21.3682 22.3691 21.3682 22.3633C21.3682 22.3175 21.363 22.2717 21.363 22.2201C21.3318 21.0859 21.2641 18.4337 19.0062 17.5859C18.9906 17.5801 18.9698 17.5744 18.9542 17.5687C16.6079 16.9099 14.6569 15.4206 14.6361 15.4034C14.3188 15.157 13.8817 15.243 13.658 15.5924C13.4343 15.9418 13.5124 16.423 13.8297 16.6693C13.9182 16.7381 15.9888 18.3248 18.5796 19.0581C19.7918 19.5335 19.9271 20.9599 19.9635 22.266C19.9635 22.3175 19.9635 22.3633 19.9687 22.4092C19.9739 22.9247 19.9427 23.721 19.8594 24.1792C19.0166 24.7062 15.713 26.5279 10.6874 26.5279C5.68257 26.5279 2.35816 24.7005 1.51015 24.1735C1.42691 23.7152 1.39049 22.919 1.40089 22.4034C1.40089 22.3576 1.4061 22.3118 1.4061 22.2602C1.44251 20.9542 1.57778 19.5278 2.78997 19.0523C5.38082 18.3191 7.45143 16.7266 7.53987 16.6636C7.85722 16.4173 7.93526 15.9361 7.71155 15.5867C7.48784 15.2372 7.05083 15.1513 6.73348 15.3976C6.71267 15.4148 4.77213 16.9042 2.41539 17.563C2.39458 17.5687 2.37897 17.5744 2.36336 17.5801C0.105466 18.4337 0.0378337 21.0859 0.00661858 22.2144C0.00661858 22.266 0.00661846 22.3118 0.00141594 22.3576C0.00141594 22.3633 0.00141594 22.3691 0.00141594 22.3748C-0.00378658 22.6727 -0.00898901 24.2021 0.266745 24.9697C0.31877 25.1187 0.412415 25.2447 0.537276 25.3306C0.693352 25.4452 4.43396 28.0688 10.6926 28.0688C16.9512 28.0688 20.6918 25.4395 20.8479 25.3306C20.9676 25.2447 21.0664 25.1187 21.1185 24.9697C21.3786 24.2079 21.3734 22.6784 21.3682 22.3805Z" fill="#fff"/></symbol></svg>